<?xml version="1.0" standalone="no"?>
<!DOCTYPE svg PUBLIC "-//W3C//DTD SVG 20010904//EN"
 "http://www.w3.org/TR/2001/REC-SVG-20010904/DTD/svg10.dtd">
<svg version="1.0" xmlns="http://www.w3.org/2000/svg"
 width="426.000000pt" height="426.000000pt" viewBox="0 0 426.000000 426.000000"
 preserveAspectRatio="xMidYMid meet">
<metadata>
Created by potrace 1.14, written by Peter Selinger 2001-2017
</metadata>
<g transform="translate(0.000000,426.000000) scale(0.100000,-0.100000)"
fill="#000000" stroke="none">
<path d="M1923 3863 c-27 -5 -28 -11 -9 -32 15 -18 28 -169 15 -177 -24 -15
-2 -24 57 -24 77 0 104 12 104 45 0 28 -17 33 -34 11 -6 -8 -21 -17 -32 -20
-20 -6 -22 -2 -26 36 -5 49 -3 57 14 40 22 -22 38 -13 38 21 0 17 -5 39 -10
47 -9 13 -12 13 -21 -2 -15 -26 -29 -22 -29 7 0 30 24 33 52 8 23 -21 39 -7
27 25 -7 19 -15 22 -66 21 -32 -1 -68 -4 -80 -6z"/>
<path d="M1624 3806 c-86 -38 -61 -211 33 -229 59 -11 144 41 129 79 -6 15
-10 14 -34 -9 -16 -15 -38 -27 -50 -27 -24 0 -66 51 -76 93 -12 50 34 95 47
46 8 -31 61 -23 65 10 7 46 -50 65 -114 37z"/>
<path d="M2520 3786 c0 -50 -21 -138 -38 -158 -13 -16 -12 -19 13 -28 42 -16
59 -9 61 25 1 17 9 58 18 91 24 94 23 104 -19 104 -33 0 -35 -2 -35 -34z"/>
<path d="M2789 3736 c-37 -18 -56 -59 -43 -95 10 -25 9 -30 -6 -34 -46 -12
-17 -89 40 -102 36 -8 90 24 112 65 24 46 24 121 -1 144 -28 26 -75 36 -102
22z m71 -57 c0 -32 -19 -59 -40 -59 -22 0 -27 29 -10 61 15 26 50 25 50 -2z
m-43 -106 c3 -7 -4 -16 -15 -22 -17 -9 -18 -7 -14 15 4 24 22 28 29 7z"/>
<path d="M1342 3704 c-24 -17 -29 -34 -9 -34 13 0 51 -59 43 -68 -3 -2 -28 10
-56 27 -59 36 -70 38 -101 11 -22 -19 -23 -21 -6 -31 19 -11 87 -139 87 -164
0 -16 9 -19 34 -9 17 7 22 34 6 34 -10 0 -64 99 -58 106 2 2 39 -17 82 -41
110 -63 116 -56 57 64 -21 44 -38 87 -38 97 3 23 -14 27 -41 8z"/>
<path d="M3113 3582 c-36 -6 -66 -51 -59 -91 3 -18 2 -31 -1 -28 -14 14 -43
-15 -43 -43 0 -37 41 -70 86 -70 57 0 124 74 126 140 2 57 -52 101 -109 92z
m60 -54 c7 -22 -22 -68 -43 -68 -24 0 -26 27 -4 58 17 24 40 29 47 10z m-63
-113 c0 -8 -2 -15 -4 -15 -2 0 -12 -3 -21 -6 -15 -6 -15 -4 -4 15 16 25 29 27
29 6z"/>
<path d="M1017 3514 c-40 -27 -46 -43 -19 -51 23 -7 106 -121 105 -144 -3 -29
12 -30 48 -3 33 24 46 51 22 47 -15 -3 -107 126 -106 149 3 28 -11 29 -50 2z"/>
<path d="M1936 3520 c-336 -42 -666 -204 -911 -445 -84 -83 -213 -240 -204
-249 2 -2 25 -7 50 -11 l47 -7 54 69 c368 459 962 653 1543 504 276 -71 570
-259 747 -481 34 -41 67 -79 75 -83 18 -11 93 1 93 15 0 19 -129 175 -205 249
-118 115 -256 213 -400 283 -233 114 -394 154 -655 161 -91 2 -196 0 -234 -5z"/>
<path d="M3377 3352 c-10 -10 -17 -26 -17 -35 0 -12 -9 -17 -29 -17 -35 0 -61
-31 -61 -73 0 -43 57 -97 103 -97 39 0 77 36 77 71 0 11 7 19 15 19 21 0 48
45 40 69 -8 27 -71 81 -94 81 -10 0 -25 -8 -34 -18z m83 -52 c0 -4 -7 -13 -15
-20 -22 -18 -44 2 -26 24 12 14 41 12 41 -4z m-62 -63 c5 -25 -27 -59 -52 -55
-29 4 -31 33 -6 58 25 25 53 23 58 -3z"/>
<path d="M830 3353 c-31 -11 -70 -57 -70 -82 0 -54 39 -76 109 -63 28 5 56 5
63 1 20 -13 -3 -42 -43 -55 -47 -16 -49 -34 -4 -34 29 0 45 8 71 34 41 41 43
68 8 102 -20 21 -33 25 -65 22 -33 -3 -37 -2 -24 8 9 7 15 20 13 30 -4 21 -38
43 -58 37z m-4 -81 c-22 -5 -30 3 -21 18 5 8 11 7 22 -2 15 -12 14 -13 -1 -16z"/>
<path d="M1925 3340 c-245 -39 -478 -143 -678 -302 -87 -69 -211 -200 -200
-212 3 -3 21 -6 40 -6 29 0 48 14 131 93 54 50 129 113 168 138 317 212 707
279 1073 185 229 -59 412 -163 595 -336 57 -54 79 -69 114 -75 30 -5 42 -3 42
6 0 18 -185 198 -265 257 -135 99 -316 182 -500 228 -84 21 -130 26 -280 29
-99 2 -207 0 -240 -5z"/>
<path d="M1971 3199 c-114 -22 -239 -76 -492 -212 -47 -25 -117 -58 -155 -73
-79 -31 -98 -44 -66 -44 33 0 127 33 297 105 204 87 315 123 437 141 213 32
386 -1 700 -137 172 -74 273 -109 307 -108 24 0 24 1 -9 16 -19 8 -152 73
-295 144 -312 155 -390 180 -569 178 -61 -1 -131 -5 -155 -10z"/>
<path d="M2032 2985 c-151 -66 -215 -256 -131 -394 25 -42 35 -34 18 16 -17
53 -14 143 6 184 45 89 132 137 228 125 147 -17 229 -156 183 -309 -19 -63 -1
-60 29 6 65 139 -1 313 -141 372 -45 19 -148 19 -192 0z"/>
<path d="M1480 2883 c-191 -63 -480 -103 -772 -106 -195 -2 -197 -4 -103 -79
68 -56 146 -88 211 -88 58 0 49 15 -13 24 -27 3 -55 11 -63 17 -12 8 -9 9 12
5 101 -22 187 -27 311 -16 115 9 160 16 287 45 14 3 -13 -8 -60 -25 -136 -49
-276 -73 -425 -74 -71 -1 -142 2 -157 7 -40 11 -36 -11 7 -46 82 -65 225 -103
300 -78 27 8 25 9 -25 11 -30 1 -73 8 -95 15 l-40 14 40 -7 c71 -12 248 -5
331 13 43 9 107 30 142 46 34 15 62 25 62 23 0 -11 -190 -94 -265 -115 -62
-18 -106 -23 -198 -23 -99 -1 -117 -3 -115 -16 5 -23 105 -78 167 -91 96 -20
263 4 220 32 -11 7 -9 9 8 9 11 0 66 22 120 49 70 36 117 68 165 114 75 71 66
43 -14 -48 -97 -109 -247 -179 -406 -192 l-86 -6 35 -29 c78 -66 254 -78 324
-23 19 15 18 15 -10 10 -22 -4 -15 2 25 22 76 38 142 94 196 167 49 64 52 47
6 -33 -58 -103 -171 -190 -273 -213 -30 -6 -58 -15 -63 -19 -13 -11 26 -27 96
-38 76 -13 146 1 203 40 32 22 51 50 23 33 -7 -4 10 15 39 42 28 27 61 69 72
94 11 25 21 38 21 29 0 -31 -71 -158 -106 -189 -20 -17 -56 -41 -80 -53 -50
-24 -55 -34 -19 -43 65 -16 189 27 262 90 45 39 97 133 90 163 -3 15 -6 13
-15 -9 -14 -35 -25 -37 -12 -2 6 14 10 39 10 55 0 16 3 29 8 28 4 0 34 -6 67
-13 l60 -13 7 -139 c17 -358 17 -355 -6 -348 -44 14 -96 45 -106 63 -21 40 -5
111 24 111 27 0 66 59 66 101 0 53 -17 51 -82 -13 -29 -29 -47 -45 -39 -35 19
24 10 30 -17 11 -34 -24 -82 -114 -82 -154 0 -20 9 -52 19 -73 l19 -37 -22 0
c-13 1 -31 15 -48 40 -49 71 -178 140 -262 140 -17 0 -49 12 -69 26 -43 29
-55 27 -37 -6 15 -28 10 -32 -81 -60 -75 -22 -155 -25 -201 -5 -30 12 -20 -11
10 -24 49 -23 123 -24 232 -2 60 11 127 18 154 15 59 -6 131 -41 175 -88 31
-32 32 -36 15 -36 -12 0 -29 9 -40 21 -54 59 -163 95 -254 83 l-55 -7 73 -13
c51 -9 90 -23 125 -46 l52 -33 -77 -3 c-68 -2 -82 0 -115 22 -59 37 -96 45
-264 54 -142 8 -161 11 -204 35 -56 32 -59 32 -46 9 5 -10 38 -33 71 -51 54
-29 76 -34 176 -42 201 -16 176 -28 -63 -28 l-223 -1 0 100 c0 92 8 118 26 89
10 -16 85 -49 114 -49 25 0 25 0 -5 19 -48 30 -76 61 -97 107 -18 43 -18 44 3
139 22 94 22 96 3 110 -10 8 -25 14 -33 12 -33 -5 -79 -241 -82 -419 l-2 -108
-37 0 c-35 0 -38 2 -43 38 -15 88 19 339 65 480 l20 64 -33 28 c-42 36 -43 36
-57 6 -46 -101 -92 -359 -92 -513 l0 -103 -151 0 -150 0 3 -32 3 -33 1865 0
1865 0 3 33 3 32 -149 0 -149 0 -7 143 c-7 142 -27 266 -67 401 -28 95 -36
102 -78 67 l-33 -27 20 -70 c39 -132 53 -220 59 -366 l6 -148 -40 0 -40 0 -6
143 c-4 85 -14 178 -27 232 -36 161 -42 171 -87 140 l-21 -15 23 -91 c19 -73
21 -97 13 -122 -17 -50 -47 -87 -96 -118 -34 -21 -41 -30 -29 -35 17 -6 101
28 128 52 16 15 18 13 24 -28 3 -23 5 -68 3 -98 l-4 -55 -219 -2 c-235 -2
-264 10 -66 26 58 5 114 12 124 16 10 4 17 3 17 -5 0 -6 5 -8 10 -5 6 4 8 10
5 15 -3 5 4 11 15 15 24 8 80 53 80 65 0 5 -20 -3 -45 -17 -41 -22 -63 -26
-198 -34 -169 -9 -227 -21 -273 -56 -26 -20 -42 -23 -110 -23 l-79 1 30 25
c39 33 65 43 150 58 l70 13 -55 7 c-90 12 -210 -26 -253 -80 -10 -13 -28 -24
-40 -24 -19 0 -16 5 18 40 82 84 161 102 315 70 117 -24 204 -23 246 5 32 21
26 29 -10 15 -47 -18 -127 -11 -209 17 -54 18 -75 29 -67 37 11 11 14 46 3 46
-4 0 -16 -9 -28 -20 -14 -13 -47 -25 -86 -31 -35 -5 -86 -20 -114 -33 -57 -26
-141 -97 -150 -126 -4 -13 -15 -20 -31 -20 -27 0 -31 12 -9 30 7 6 17 31 20
55 10 61 -27 136 -90 185 -17 14 -18 13 -11 -5 4 -12 -13 -1 -41 28 -55 53
-70 58 -79 23 -8 -35 20 -92 55 -110 53 -28 67 -85 31 -124 -19 -20 -109 -66
-116 -59 -3 3 14 428 19 471 2 15 15 22 62 32 64 12 74 8 75 -31 0 -11 9 -39
20 -62 10 -24 17 -43 15 -43 -3 0 -14 19 -26 43 -32 61 -36 26 -5 -38 56 -114
211 -201 321 -181 44 9 44 19 1 34 -84 31 -184 161 -201 262 -4 28 -1 24 16
-20 14 -35 41 -74 75 -108 30 -29 49 -50 43 -46 -7 4 -10 1 -7 -7 3 -8 30 -27
60 -42 47 -24 68 -29 129 -29 67 1 160 25 147 38 -3 2 -34 13 -70 23 -121 33
-218 110 -276 219 -45 84 -40 95 13 24 53 -72 128 -134 210 -174 33 -16 52
-27 42 -24 -60 19 -68 15 -23 -10 45 -24 58 -26 130 -22 61 3 93 11 132 31 87
44 86 53 -9 60 -159 13 -275 64 -383 172 -86 85 -124 145 -46 73 93 -87 204
-148 315 -174 48 -11 53 -13 19 -10 -50 5 -47 -9 6 -24 77 -21 202 -7 277 33
33 17 75 54 75 65 0 4 -55 8 -123 8 -101 1 -137 6 -211 28 -88 27 -231 90
-242 108 -3 5 17 -2 45 -17 108 -54 356 -86 486 -63 33 6 36 6 15 -3 -14 -6
-56 -13 -95 -16 -75 -7 -66 -21 15 -22 82 -1 177 32 239 85 49 41 41 53 -26
42 -76 -13 -243 -2 -365 22 -99 21 -322 89 -315 97 3 2 33 -5 68 -17 72 -23
209 -45 344 -55 78 -5 163 1 264 20 19 4 16 1 -9 -9 -19 -8 -46 -15 -60 -15
-14 -1 -32 -6 -40 -12 -11 -7 3 -9 51 -7 47 3 81 12 122 33 54 27 147 107 147
126 0 4 -78 8 -174 8 -285 1 -587 42 -775 106 -75 25 -86 18 -22 -14 61 -32
214 -72 386 -103 154 -27 156 -28 70 -22 -181 11 -409 57 -538 109 -38 15 -75
24 -86 20 -34 -11 -58 -66 -63 -146 -10 -152 -116 -269 -258 -286 -28 -3 -51
-12 -54 -19 -3 -8 -6 -114 -7 -236 -1 -123 -5 -232 -10 -243 -6 -12 -7 46 -4
155 3 96 5 214 5 262 l0 86 35 22 c51 32 84 80 96 141 9 42 8 61 -2 84 -13 30
-13 30 -16 5 -10 -76 -17 -94 -46 -127 -58 -66 -132 -80 -208 -40 -54 29 -89
85 -89 145 0 45 -14 57 -24 20 -24 -90 21 -182 117 -243 13 -9 16 -52 22 -294
5 -191 4 -282 -3 -277 -6 4 -10 92 -11 233 -1 126 -4 249 -8 276 -5 43 -8 47
-32 47 -67 0 -133 31 -192 89 -64 64 -89 125 -89 214 0 57 -33 125 -65 133
-11 2 -47 -6 -81 -20 -132 -54 -367 -101 -549 -110 -55 -2 -86 -2 -70 0 224
35 297 49 390 75 109 31 178 60 190 79 3 5 5 10 3 9 -2 -1 -37 -12 -78 -26z
m135 -118 c-39 -32 -93 -71 -80 -58 19 21 97 83 103 83 4 0 -6 -11 -23 -25z
m1066 -22 c13 -16 12 -17 -3 -4 -17 13 -22 21 -14 21 2 0 10 -8 17 -17z
m-1271 -43 c-8 -5 -19 -10 -25 -10 -5 0 -3 5 5 10 8 5 20 10 25 10 6 0 3 -5
-5 -10z m1290 -75 c13 -14 21 -25 18 -25 -2 0 -15 11 -28 25 -13 14 -21 25
-18 25 2 0 15 -11 28 -25z m-223 -192 c-3 -10 -5 -4 -5 12 0 17 2 24 5 18 2
-7 2 -21 0 -30z m-1264 -70 c-7 -2 -21 -2 -30 0 -10 3 -4 5 12 5 17 0 24 -2
18 -5z m124 -119 c-3 -3 -12 -4 -19 -1 -8 3 -5 6 6 6 11 1 17 -2 13 -5z m-74
-11 c-7 -2 -21 -2 -30 0 -10 3 -4 5 12 5 17 0 24 -2 18 -5z m1760 0 c-7 -2
-19 -2 -25 0 -7 3 -2 5 12 5 14 0 19 -2 13 -5z m-576 -195 c-3 -8 -6 -5 -6 6
-1 11 2 17 5 13 3 -3 4 -12 1 -19z m-600 -100 c10 -11 36 -29 58 -39 l40 -19
-35 0 c-20 0 -45 7 -56 15 -27 18 -54 75 -54 112 1 26 2 26 14 -10 8 -21 22
-48 33 -59z m604 36 c-16 -58 -56 -94 -105 -93 l-41 0 40 15 c50 18 82 48 96
91 15 46 23 35 10 -13z m-261 -79 c0 -8 -4 -15 -10 -15 -5 0 -10 7 -10 15 0 8
5 15 10 15 6 0 10 -7 10 -15z"/>
<path d="M1714 2896 c-3 -8 8 -35 25 -60 27 -38 31 -54 31 -108 0 -81 31 -148
93 -205 43 -39 67 -53 67 -37 0 3 -11 15 -25 26 -61 48 -101 162 -86 244 8 44
7 51 -25 100 -35 54 -68 71 -80 40z"/>
<path d="M2466 2858 c-32 -49 -34 -56 -26 -98 16 -84 -12 -171 -75 -235 -19
-19 -35 -37 -35 -40 0 -14 24 -1 62 33 58 52 98 140 98 218 0 51 4 66 30 101
32 43 32 73 -1 73 -12 0 -32 -20 -53 -52z"/>
<path d="M2064 2821 c-105 -48 -117 -194 -23 -262 48 -34 131 -34 176 0 64 48
82 140 41 201 -50 73 -121 96 -194 61z m76 -86 c0 -9 8 -19 18 -22 28 -11 33
-28 9 -33 -13 -4 -23 -15 -25 -28 -5 -31 -32 -28 -32 3 0 18 -5 25 -20 25 -11
0 -20 7 -20 15 0 8 8 15 19 15 10 0 21 9 24 20 6 23 27 27 27 5z"/>
<path d="M1897 2384 c-4 -4 -7 -15 -7 -24 0 -34 -62 -139 -106 -180 -45 -42
-134 -90 -166 -90 -10 0 -18 -4 -18 -10 0 -15 20 -12 83 9 70 24 134 68 181
122 42 50 78 123 74 152 -3 22 -28 34 -41 21z"/>
<path d="M2315 2381 c-3 -5 4 -35 16 -66 41 -109 175 -220 292 -241 57 -10 44
9 -21 29 -104 32 -192 123 -226 232 -13 41 -23 55 -36 55 -11 0 -21 -4 -25 -9z"/>
<path d="M903 2314 c-7 -3 -13 -16 -13 -29 0 -44 50 -60 74 -22 20 32 -22 67
-61 51z"/>
<path d="M3300 2305 c-26 -32 13 -81 48 -59 34 22 22 74 -18 74 -10 0 -23 -7
-30 -15z"/>
<path d="M940 2205 c-11 -13 -10 -22 3 -50 19 -40 8 -46 -31 -19 -34 23 -37
11 -7 -25 16 -18 43 -35 68 -42 23 -6 66 -20 95 -30 63 -23 130 -24 177 -5 19
8 35 17 35 19 0 2 -25 2 -55 -1 -99 -8 -181 42 -220 133 -15 38 -43 46 -65 20z"/>
<path d="M3263 2208 c-5 -7 -15 -28 -23 -46 -28 -72 -114 -118 -206 -110 -62
5 -71 -6 -16 -21 54 -16 102 -13 168 8 33 10 74 22 92 26 38 8 92 50 92 72 0
13 -3 13 -25 -1 -37 -24 -46 -20 -30 16 9 22 10 39 4 50 -11 21 -42 24 -56 6z"/>
<path d="M1060 2155 c-11 -13 -11 -18 2 -31 20 -20 50 -7 46 20 -4 26 -30 32
-48 11z"/>
<path d="M3157 2163 c-22 -21 2 -56 31 -46 17 7 15 40 -4 47 -19 7 -19 7 -27
-1z"/>
<path d="M1115 2110 c-9 -15 41 -42 88 -47 26 -3 56 1 77 10 l35 15 -66 1
c-41 1 -72 6 -85 16 -22 17 -40 19 -49 5z"/>
<path d="M3090 2104 c-14 -7 -52 -14 -84 -14 -72 0 -65 -17 11 -26 55 -7 123
17 123 42 0 17 -17 16 -50 -2z"/>
<path d="M680 1920 c0 -5 5 -10 10 -10 6 0 10 5 10 10 0 6 -4 10 -10 10 -5 0
-10 -4 -10 -10z"/>
<path d="M1430 1919 c0 -5 5 -7 10 -4 6 3 10 8 10 11 0 2 -4 4 -10 4 -5 0 -10
-5 -10 -11z"/>
<path d="M323 1713 c-28 -5 -63 -48 -63 -77 0 -11 6 -33 14 -48 12 -23 12 -27
0 -32 -23 -9 -19 -111 6 -136 24 -24 110 -28 150 -7 20 11 31 11 54 2 17 -7
42 -9 60 -5 18 4 54 4 81 1 28 -4 84 -4 125 -1 75 5 75 5 78 35 2 17 12 38 23
48 10 10 19 25 19 34 0 13 3 14 12 5 10 -10 10 -19 0 -44 -10 -26 -9 -36 3
-55 14 -20 24 -23 88 -25 39 -1 81 -1 92 0 11 1 57 2 102 1 45 0 92 5 103 11
16 9 25 8 36 -1 8 -6 39 -11 69 -10 30 1 63 1 73 1 140 -3 350 4 365 11 10 6
26 24 36 41 l19 30 18 -31 c30 -50 68 -64 148 -53 37 5 85 6 105 2 20 -4 65
-5 98 -2 58 4 62 6 72 35 17 46 13 66 -15 94 l-27 27 22 14 c27 18 29 80 4
111 -16 20 -28 22 -106 22 -50 0 -95 -5 -102 -11 -9 -8 -14 -8 -17 0 -2 6 -29
13 -60 16 -68 6 -110 -12 -129 -54 l-13 -29 -36 38 -37 39 -136 0 c-116 0
-137 -2 -145 -16 -9 -16 -11 -16 -33 0 -17 11 -45 16 -102 16 -70 0 -79 -2
-84 -20 -5 -20 -5 -20 -30 0 -23 18 -43 19 -305 20 l-280 0 5 -77 c7 -87 -1
-84 -38 17 -20 54 -21 55 -63 58 -55 4 -69 -8 -69 -59 0 -22 -5 -45 -12 -52
-6 -6 -11 -22 -11 -36 -1 -23 -2 -24 -11 -8 -6 10 -8 34 -4 53 7 39 -10 104
-28 105 -7 0 -32 2 -57 3 -25 2 -55 1 -67 -1z m33 -49 c-19 -19 -9 -43 28 -68
64 -42 71 -105 14 -125 -30 -11 -30 -10 -15 7 26 29 20 49 -28 96 -25 25 -45
53 -45 63 0 24 19 43 43 43 17 0 17 -1 3 -16z m251 -41 c28 -79 47 -153 41
-158 -8 -8 -55 40 -51 52 6 17 -11 76 -23 80 -12 4 -38 -73 -29 -87 3 -6 2
-10 -3 -10 -5 0 -12 -10 -15 -22 -4 -12 -8 -20 -11 -17 -7 6 57 219 65 219 4
0 15 -26 26 -57z m174 48 c-8 -6 -12 -25 -11 -57 5 -103 1 -144 -15 -144 -12
0 -15 18 -15 105 l0 105 28 0 c19 0 23 -3 13 -9z m79 -13 c0 -17 -3 -19 -9 -9
-5 7 -15 17 -22 22 -10 6 -8 9 9 9 16 0 22 -6 22 -22z m113 -36 c0 -31 -2 -80
-2 -107 -1 -44 -4 -51 -21 -51 -19 0 -20 7 -20 108 0 105 1 108 23 108 20 0
22 -4 20 -58z m81 42 c9 -25 2 -26 -17 -4 -13 16 -14 20 -3 20 8 0 17 -7 20
-16z m186 -4 c24 -24 24 -29 5 -57 -13 -18 -12 -23 5 -43 24 -28 25 -53 4 -74
-24 -24 -30 -19 -26 19 5 39 -11 65 -39 65 -16 0 -19 -8 -19 -50 0 -43 -3 -50
-20 -50 -19 0 -20 7 -20 105 l0 105 45 0 c32 0 51 -6 65 -20z m145 -37 c0 -45
4 -58 16 -61 45 -9 67 74 27 102 -25 18 -8 22 22 6 35 -19 43 -46 25 -85 -9
-19 -14 -39 -10 -45 4 -6 10 -24 15 -41 13 -45 -19 -35 -34 11 -9 27 -17 36
-38 38 -27 3 -28 1 -28 -37 0 -30 -4 -41 -15 -41 -11 0 -15 12 -16 48 0 26 -1
73 -2 105 -2 51 0 57 18 57 18 0 20 -7 20 -57z m218 0 c-1 -32 -2 -79 -2 -105
-1 -35 -5 -48 -15 -48 -17 0 -24 65 -18 158 3 40 8 52 20 52 14 0 17 -10 15
-57z m122 -48 c0 -93 -2 -105 -17 -105 -15 0 -18 9 -19 48 0 26 -1 73 -2 105
-2 51 0 57 18 57 19 0 20 -7 20 -105z m78 73 c38 -51 20 -154 -31 -178 -26
-11 -26 -11 -8 8 34 38 33 153 -1 188 -15 15 -15 16 2 13 10 -2 27 -16 38 -31z
m157 12 c-29 -29 -29 -136 1 -174 l20 -26 -23 8 c-27 10 -58 65 -58 104 0 55
33 108 67 108 8 0 6 -7 -7 -20z m223 12 c-9 -6 -12 -36 -10 -105 2 -85 0 -97
-15 -97 -18 0 -26 56 -20 154 4 53 5 56 30 56 17 0 22 -3 15 -8z m77 -14 c0
-17 -3 -19 -9 -9 -5 7 -15 17 -22 22 -10 6 -8 9 9 9 16 0 22 -6 22 -22z
m-1830 -10 c0 -19 -2 -20 -10 -8 -13 19 -13 30 0 30 6 0 10 -10 10 -22z m1657
-35 c-3 -10 -5 -4 -5 12 0 17 2 24 5 18 2 -7 2 -21 0 -30z m-1267 -45 c0 -16
-3 -19 -11 -11 -6 6 -8 16 -5 22 11 17 16 13 16 -11z m197 3 c-1 -11 -6 -17
-14 -14 -10 4 -11 9 -2 19 15 19 18 18 16 -5z m1203 -3 c0 -16 -3 -19 -11 -11
-6 6 -8 16 -5 22 11 17 16 13 16 -11z m-168 -47 c-3 -38 -7 -48 -18 -44 -9 3
-14 21 -14 49 0 35 3 44 18 44 14 0 16 -8 14 -49z m-1729 -24 c13 -21 13 -23
-2 -23 -10 0 -18 9 -19 23 -1 13 0 23 2 23 2 0 10 -10 19 -23z m734 -22 c-4
-8 -13 -15 -22 -15 -13 0 -12 3 3 18 19 21 27 20 19 -3z m1203 0 c-7 -8 -17
-15 -23 -15 -5 0 -2 9 8 20 21 23 35 19 15 -5z"/>
<path d="M1170 1626 c0 -32 4 -46 14 -46 41 0 49 82 9 88 -21 3 -23 -1 -23
-42z"/>
<path d="M2680 1713 c-8 -3 -23 -12 -32 -21 -16 -14 -20 -13 -36 1 -15 14 -40
17 -120 17 -91 0 -102 -2 -112 -20 -6 -11 -8 -26 -3 -33 10 -17 11 -159 1
-180 -7 -13 -5 -26 6 -41 13 -21 25 -24 103 -28 94 -5 133 2 133 26 0 12 8 10
36 -9 20 -14 49 -25 64 -25 15 0 44 11 64 25 26 18 36 21 36 10 0 -26 39 -37
103 -31 34 4 95 6 135 5 85 -1 106 11 97 51 -5 24 -1 30 36 49 38 20 41 20 36
4 -3 -10 -9 -27 -12 -39 -11 -35 23 -65 76 -67 67 -3 77 10 74 93 -2 52 0 70
10 70 18 0 28 -65 14 -89 -10 -15 -9 -24 4 -45 10 -14 25 -27 35 -27 42 -3 86
2 97 11 7 6 15 6 21 0 12 -12 61 -15 97 -5 15 4 27 3 27 -1 0 -14 293 -5 306
9 6 7 14 26 17 44 8 39 -23 83 -58 83 -28 0 -37 30 -29 92 8 58 -7 70 -83 66
l-58 -3 3 -53 c5 -90 -11 -94 -44 -10 -16 40 -32 72 -37 71 -4 -2 -25 -3 -48
-3 -32 0 -42 -4 -46 -20 -5 -19 -5 -19 -22 0 -15 18 -29 20 -174 21 -109 0
-163 -3 -173 -11 -10 -9 -21 -10 -41 -2 -16 6 -92 13 -170 14 l-142 3 -28 -27
-29 -28 -25 25 c-25 26 -80 40 -109 28z m-208 -90 c1 -32 2 -79 0 -105 -3 -40
-6 -48 -23 -48 -18 0 -19 8 -19 105 0 97 2 105 19 105 16 0 20 -9 23 -57z m90
5 c6 -93 -1 -158 -18 -158 -10 0 -14 13 -15 48 0 26 -2 73 -2 104 -2 48 1 58
15 58 12 0 17 -12 20 -52z m191 39 c29 -20 46 -84 35 -126 -10 -37 -34 -71
-50 -71 -5 0 -4 9 2 19 11 21 13 122 4 159 -4 14 -14 22 -29 22 -15 0 -25 -8
-29 -22 -9 -37 -7 -138 4 -159 12 -22 -2 -26 -19 -5 -6 7 -17 31 -25 52 -11
33 -11 45 1 79 21 61 65 83 106 52z m160 6 c-25 -9 -12 -40 32 -81 64 -58 62
-107 -3 -127 l-24 -7 21 21 c26 26 20 44 -36 99 -23 24 -43 52 -43 62 0 20 25
40 50 39 10 0 11 -2 3 -6z m190 0 c-8 -3 -13 -24 -13 -54 0 -53 17 -72 49 -52
31 19 26 98 -7 106 -13 4 -11 5 6 6 26 1 62 -31 62 -57 0 -33 -30 -62 -71 -68
-40 -7 -41 -7 -37 -45 3 -29 0 -39 -13 -42 -15 -4 -18 5 -21 52 -2 31 -2 80 0
109 3 49 4 52 30 51 15 0 21 -3 15 -6z m204 -101 c-2 -95 -4 -108 -19 -108
-16 0 -18 12 -18 108 0 100 1 108 19 108 18 0 19 -8 18 -108z m86 88 c-19 -22
-26 -21 -17 4 3 9 12 16 20 16 11 0 10 -4 -3 -20z m90 8 c-5 -7 -9 -55 -9
-105 1 -81 -1 -93 -16 -93 -14 0 -17 14 -20 105 l-3 105 29 0 c21 0 26 -3 19
-12z m57 -4 c0 -14 -3 -15 -17 -3 -10 7 -20 15 -22 16 -2 2 5 3 17 3 14 0 22
-6 22 -16z m154 -76 c15 -51 29 -100 32 -109 3 -10 -2 -16 -12 -16 -9 0 -19 9
-22 19 -2 10 -9 18 -14 18 -5 0 -6 4 -3 10 7 12 -15 90 -26 90 -11 0 -16 -11
-24 -52 -6 -30 -4 -37 12 -41 14 -4 14 -5 -5 -6 -13 -1 -27 -10 -33 -23 -8
-20 -9 -19 -4 7 10 52 57 195 64 195 4 0 20 -42 35 -92z m157 45 c0 -27 1 -76
2 -109 2 -56 0 -62 -18 -62 -19 0 -20 7 -20 109 0 97 2 109 18 109 14 0 17 -9
18 -47z m-871 22 c0 -8 -2 -15 -4 -15 -2 0 -6 7 -10 15 -3 8 -1 15 4 15 6 0
10 -7 10 -15z m580 -108 c0 -13 -7 -32 -15 -43 -14 -18 -15 -16 -12 23 2 45
27 63 27 20z m207 -39 c-3 -7 -5 -2 -5 12 0 14 2 19 5 13 2 -7 2 -19 0 -25z
m-872 -36 c-6 -8 -35 12 -35 24 0 11 4 10 18 -3 10 -10 18 -19 17 -21z m1045
9 c-6 -12 -15 -21 -21 -21 -5 0 -2 11 7 25 20 30 31 26 14 -4z"/>
<path d="M264 1286 c-3 -8 -4 -25 -2 -38 3 -22 7 -23 115 -28 l112 -5 -29 -44
-29 -43 26 -35 c20 -27 31 -33 47 -28 12 4 33 9 49 12 15 3 27 7 27 10 0 9
-46 88 -63 107 l-18 21 123 3 c107 2 124 1 133 -14 208 -356 537 -625 898
-734 34 -10 78 -21 97 -25 19 -4 40 -11 45 -15 22 -17 260 -33 413 -27 135 5
176 11 296 41 399 103 712 325 938 666 l70 105 242 5 241 5 3 23 c8 55 133 52
-1874 52 -1602 0 -1855 -2 -1860 -14z m746 -150 c203 -278 532 -481 880 -542
130 -23 355 -23 480 1 211 39 429 133 589 253 99 74 233 210 296 300 l50 71
48 1 48 0 -18 -31 c-119 -202 -364 -424 -599 -542 -203 -102 -409 -148 -664
-148 -331 0 -634 102 -885 296 -127 98 -284 270 -354 388 l-23 37 45 0 c45 0
45 0 107 -84z m415 70 c135 -29 255 -86 373 -179 35 -27 65 -48 67 -45 16 15
-162 175 -240 216 l-40 21 46 1 c71 0 154 -44 221 -118 53 -59 69 -85 99 -170
30 -85 49 -106 75 -80 15 15 15 21 -5 85 -34 111 -103 210 -181 260 l-35 23
113 0 c61 0 112 -3 112 -7 0 -5 9 -109 20 -233 11 -124 20 -231 20 -237 0 -7
5 -13 10 -13 6 0 11 45 11 113 l2 112 9 -135 c8 -127 17 -164 35 -146 5 4 13
74 19 154 l11 147 2 -122 c0 -67 5 -124 9 -127 5 -3 16 94 26 215 10 121 19
228 21 237 2 9 4 23 4 30 1 9 30 12 113 12 l112 0 -45 -29 c-80 -50 -154 -162
-179 -269 -11 -46 -10 -56 3 -69 17 -17 45 -12 51 9 3 7 12 40 22 72 24 81 83
165 150 216 69 52 112 70 166 70 l43 0 -52 -33 c-95 -59 -244 -199 -228 -215
2 -3 22 11 43 30 72 65 221 158 254 158 7 0 25 6 40 14 56 29 177 46 334 46
85 0 154 -3 154 -6 0 -14 -104 -136 -167 -195 -105 -99 -195 -161 -327 -227
-115 -58 -269 -112 -282 -99 -10 10 35 66 66 82 54 28 93 70 120 129 26 58 68
107 100 119 8 3 3 6 -13 6 -42 1 -79 -22 -133 -83 -27 -30 -77 -73 -110 -95
-65 -43 -98 -80 -132 -147 -20 -40 -23 -41 -83 -48 -78 -8 -155 -8 -240 0 -66
7 -66 7 -87 50 -30 60 -84 118 -151 159 -31 19 -66 50 -79 70 -30 48 -98 95
-136 95 l-31 0 38 -26 c28 -19 47 -44 71 -98 29 -62 41 -77 89 -109 58 -39
114 -100 96 -106 -19 -6 -184 51 -271 94 -204 103 -338 213 -474 390 l-34 45
163 0 c94 -1 187 -6 222 -14z"/>
<path d="M1222 1181 c-18 -11 -11 -61 11 -75 24 -15 51 4 55 39 4 28 -10 45
-38 45 -8 0 -21 -4 -28 -9z"/>
<path d="M2976 1174 c-9 -8 -16 -22 -16 -29 0 -7 7 -21 16 -29 30 -30 74 -13
74 29 0 42 -44 59 -74 29z"/>
<path d="M1430 1169 c0 -5 5 -7 10 -4 6 3 10 8 10 11 0 2 -4 4 -10 4 -5 0 -10
-5 -10 -11z"/>
<path d="M2925 1170 c4 -6 11 -8 16 -5 14 9 11 15 -7 15 -8 0 -12 -5 -9 -10z"/>
<path d="M1342 1144 c-13 -10 -15 -17 -6 -31 8 -14 30 -20 90 -25 127 -12 243
-53 342 -120 41 -28 70 -35 54 -13 -14 20 -88 72 -152 108 -112 61 -294 106
-328 81z"/>
<path d="M2820 1145 c-82 -17 -150 -40 -220 -75 -94 -47 -209 -140 -174 -140
3 0 24 13 47 29 98 67 232 116 349 127 80 7 108 17 108 39 0 12 -31 37 -42 34
-2 0 -32 -7 -68 -14z"/>
<path d="M3736 1191 c-23 -25 -17 -52 12 -67 13 -6 29 -17 35 -23 19 -19 42
-12 53 17 14 39 7 62 -21 62 -12 0 -25 7 -29 15 -8 21 -29 19 -50 -4z"/>
<path d="M3668 1095 c-12 -27 -1 -80 17 -80 6 -1 20 -6 31 -12 31 -18 57 4 52
42 -2 22 -9 31 -25 33 -13 2 -23 7 -23 12 0 5 -9 14 -20 20 -17 9 -22 7 -32
-15z"/>
<path d="M576 1055 c-3 -8 -17 -20 -31 -27 -32 -14 -32 -31 1 -74 25 -32 54
-45 54 -24 0 5 14 16 30 25 38 20 38 35 -1 80 -34 39 -44 42 -53 20z"/>
<path d="M3600 1001 c-8 -16 -4 -24 30 -51 23 -18 47 -29 55 -26 24 9 17 42
-10 54 -14 7 -28 19 -31 27 -8 21 -31 19 -44 -4z"/>
<path d="M648 929 c-21 -21 -38 -43 -38 -47 0 -15 46 -52 63 -52 9 0 17 7 17
16 0 9 9 18 20 21 27 7 26 41 -3 75 l-22 27 -37 -40z"/>
<path d="M3530 920 c-18 -25 -20 -33 -9 -46 7 -8 18 -13 26 -10 7 3 22 -4 32
-16 12 -12 26 -18 35 -15 23 9 20 44 -4 57 -12 6 -20 21 -20 35 0 36 -33 32
-60 -5z"/>
<path d="M722 832 l-34 -35 41 -40 40 -40 6 25 c4 15 15 28 26 31 25 7 24 38
-2 71 -26 33 -36 32 -77 -12z"/>
<path d="M3440 825 l-23 -24 42 -42 42 -42 29 33 c36 41 37 48 6 59 -13 5 -26
17 -29 25 -9 24 -40 19 -67 -9z"/>
<path d="M823 741 l-32 -39 20 -26 c20 -25 59 -36 59 -16 0 5 12 21 27 34 l27
26 -20 27 c-30 40 -45 38 -81 -6z"/>
<path d="M3351 746 l-23 -25 33 -40 c39 -46 48 -49 72 -21 20 24 23 60 4 60
-8 0 -19 11 -25 25 -15 31 -32 32 -61 1z"/>
<path d="M3275 684 c-16 -8 -33 -20 -36 -26 -10 -16 59 -98 77 -91 18 7 19 92
2 116 -12 16 -15 16 -43 1z"/>
<path d="M1001 614 c-12 -15 -21 -32 -21 -39 0 -21 41 -65 60 -65 29 0 35 21
11 39 -26 20 -17 35 10 18 31 -19 44 4 25 42 -21 39 -56 41 -85 5z"/>
<path d="M3148 599 c-34 -25 -35 -33 -3 -47 17 -8 25 -20 25 -37 0 -16 6 -25
15 -25 8 0 15 5 15 10 0 6 8 10 18 10 19 0 42 18 42 32 0 5 -11 13 -25 18 -14
5 -27 20 -31 35 -7 30 -20 31 -56 4z"/>
<path d="M1117 552 c-10 -10 -17 -33 -17 -50 0 -62 89 -83 110 -27 24 63 -51
124 -93 77z m43 -52 c0 -5 -5 -10 -11 -10 -5 0 -7 5 -4 10 3 6 8 10 11 10 2 0
4 -4 4 -10z"/>
<path d="M3036 535 c-19 -15 -19 -16 4 -57 33 -61 36 -63 65 -48 30 16 31 30
8 81 -20 42 -44 49 -77 24z"/>
<path d="M1234 465 c-11 -24 -18 -48 -15 -53 7 -9 88 -52 99 -52 12 0 46 72
43 90 -4 21 -22 30 -42 20 -12 -7 -19 -3 -27 15 -17 36 -34 30 -58 -20z"/>
<path d="M2848 445 l-27 -15 18 -41 c24 -54 33 -61 64 -54 36 10 40 30 14 77
-27 49 -33 52 -69 33z"/>
<path d="M1390 417 c0 -13 -6 -32 -14 -43 -13 -17 -12 -21 1 -36 19 -22 39
-23 46 -4 3 8 16 16 29 18 52 7 18 88 -37 88 -19 0 -25 -5 -25 -23z"/>
<path d="M2740 405 c-43 -15 -49 -37 -15 -59 14 -9 25 -23 25 -30 0 -19 23
-36 36 -28 14 9 12 108 -1 120 -6 6 -24 5 -45 -3z"/>
<path d="M1520 381 c0 -4 -11 -20 -25 -36 -15 -15 -24 -32 -23 -37 3 -9 71
-37 91 -38 8 0 9 66 1 98 -6 21 -44 33 -44 13z"/>
<path d="M2620 371 c-26 -8 -27 -13 -14 -79 7 -38 22 -47 60 -38 25 7 26 9 19
54 -7 45 -20 73 -34 71 -3 -1 -17 -4 -31 -8z"/>
<path d="M1623 344 c-3 -9 -1 -25 5 -35 9 -15 9 -17 -2 -13 -8 3 -17 1 -20 -5
-10 -16 31 -51 59 -51 28 0 39 26 33 81 -3 30 -7 34 -36 37 -23 2 -34 -2 -39
-14z"/>
<path d="M2505 343 c-32 -8 -34 -15 -21 -68 11 -43 17 -50 40 -53 53 -7 58 11
30 116 -3 12 -14 13 -49 5z"/>
<path d="M1750 325 c-10 -12 -10 -21 -2 -40 9 -20 9 -23 -4 -18 -27 10 -12
-30 17 -46 43 -24 59 -10 59 53 0 47 -3 54 -22 60 -32 8 -34 8 -48 -9z"/>
<path d="M2403 323 c-7 -2 -13 -11 -13 -19 0 -18 -9 -18 -32 3 -28 25 -40 5
-32 -55 l6 -51 54 3 c30 1 56 5 59 8 9 8 -9 111 -20 114 -6 1 -16 0 -22 -3z"/>
<path d="M1856 268 c-5 -43 -3 -55 11 -65 27 -21 43 3 43 63 0 50 -2 54 -24
54 -21 0 -24 -6 -30 -52z"/>
<path d="M1957 292 c-52 -57 34 -139 88 -85 18 17 15 64 -6 90 -16 19 -63 16
-82 -5z m53 -47 c0 -8 -4 -15 -10 -15 -5 0 -10 7 -10 15 0 8 5 15 10 15 6 0
10 -7 10 -15z"/>
<path d="M2094 301 c-5 -6 -5 -111 0 -111 2 0 11 -3 20 -6 12 -5 16 0 16 17
l0 23 21 -23 c29 -31 41 -15 37 49 l-3 53 -43 1 c-24 1 -46 -1 -48 -3z"/>
</g>
</svg>
